<svg width="97" height="21" viewBox="0 0 97 21" fill="none" xmlns="http://www.w3.org/2000/svg">
<g clip-path="url(#clip0_18401_4012)">
<path d="M0 18.2738L2.34072 15.6633C3.51215 16.9686 5.09913 17.4041 6.81627 17.4041C8.94984 17.4041 10.095 16.5048 10.095 14.8514C10.095 14.1256 9.91306 13.5166 9.52294 13.1107C9.15806 12.7343 8.74162 12.5312 7.88297 12.386L5.64573 12.0379C4.05875 11.777 2.88732 11.226 2.05516 10.3267C1.17036 9.3398 0.728499 8.00518 0.728499 6.26552C0.728499 2.58112 3.17395 0 7.18097 0C9.73008 0 11.5783 0.69623 13.1653 2.40761L10.875 4.93071C9.70466 3.6833 8.29958 3.50979 7.07623 3.50979C5.15087 3.50979 4.21416 4.69937 4.21416 6.12029C4.21416 6.64191 4.37063 7.19309 4.76075 7.59904C5.12563 7.97672 5.72397 8.29527 6.47771 8.41223L8.66428 8.76034C10.3547 9.02125 11.4216 9.54287 12.2019 10.3548C13.1916 11.3993 13.6334 12.9074 13.6334 14.7356C13.6334 18.7376 10.6414 21 6.76435 21C3.95419 21 1.82062 20.3331 0 18.2738Z" fill="#359740"/>
<path d="M17.042 20.8265V0.173584H29.244V3.77077H20.6578V8.61536H27.9699V12.2113H20.6578V17.2294H29.244V20.8265H17.042Z" fill="#359740"/>
<path d="M32.7842 20.8265V0.173584H44.9862V3.77077H36.4V8.61536H43.7122V12.2113H36.4V17.2294H44.9862V20.8265H32.7842Z" fill="#359740"/>
<path d="M75.5077 20.8265L71.8906 12.5889H69.2887V20.8265H65.6729V0.173584H72.932C76.7043 0.173584 78.9416 3.04608 78.9416 6.49693C78.9416 9.3977 77.3546 11.1963 75.5594 11.9221L79.6966 20.8265H75.5077ZM72.6973 3.77077H69.2887V9.22437H72.6973C74.2843 9.22437 75.3257 8.09264 75.3257 6.49693C75.3257 4.90251 74.2843 3.77077 72.6973 3.77077Z" fill="#359740"/>
<path d="M93.2269 20.8265L92.1347 17.1715H85.5521L84.4324 20.8265H80.6602L87.3992 0.173584H90.2348L97.0004 20.8265H93.2269ZM88.908 6.26559L86.566 13.7785H91.1715L88.908 6.26559Z" fill="#359740"/>
<path d="M60.1036 2.14678C58.8803 0.783702 57.1368 0.173584 55.2115 0.173584H48.5254V20.8265H52.5793C53.9758 16.8159 56.0895 12.4404 54.6488 5.95786C56.568 12.718 54.6697 17.0142 53.33 20.8265H55.2115C57.1368 20.8265 58.8803 20.2175 60.1035 18.8544C62.1853 16.5331 61.9769 13.5165 61.9769 10.4127C61.9771 7.30993 62.1855 4.467 60.1036 2.14678ZM54.5227 18.3868C55.5604 15.7915 56.6511 11.6287 55.0992 6.5252C57.1759 9.12633 57.4974 12.9701 57.0573 14.7237C60.8157 10.5129 56.9531 5.59323 53.0994 3.49701C55.5567 8.10475 55.1861 12.4463 53.2781 17.6695C47.2836 13.471 54.4001 8.1222 52.3833 2.36564C61.0887 6.09777 62.6406 14.4907 54.5227 18.3868Z" fill="#359740"/>
</g>
<defs>
<clipPath id="clip0_18401_4012">
<rect width="97" height="21" fill="white"/>
</clipPath>
</defs>
</svg>
