<svg width="33" height="30" viewBox="0 0 33 30" fill="none" xmlns="http://www.w3.org/2000/svg">
<rect width="33" height="30" rx="4" fill="#359740"/>
<path d="M25.777 19.9334C26.7895 19.9334 27.6104 20.6797 27.6104 21.6001C27.6104 22.5205 26.7895 23.2668 25.777 23.2668C25.2261 23.2668 7.9946 23.2668 7.44369 23.2668C6.43123 23.2668 5.61035 22.5205 5.61035 21.6001C5.61035 20.6797 6.43123 19.9334 7.44369 19.9334C7.9946 19.9334 25.2261 19.9334 25.777 19.9334ZM25.777 13.2668C26.7895 13.2668 27.6104 14.013 27.6104 14.9334C27.6104 15.8539 26.7895 16.6001 25.777 16.6001C25.2261 16.6001 7.9946 16.6001 7.44369 16.6001C6.43123 16.6001 5.61035 15.8539 5.61035 14.9334C5.61035 14.013 6.43123 13.2668 7.44369 13.2668C7.9946 13.2668 25.2261 13.2668 25.777 13.2668ZM25.777 6.6001C26.7895 6.6001 27.6104 7.34635 27.6104 8.26677C27.6104 9.18718 26.7895 9.93343 25.777 9.93343C25.2261 9.93343 7.9946 9.93343 7.44369 9.93343C6.43123 9.93343 5.61035 9.18718 5.61035 8.26677C5.61035 7.34635 6.43123 6.6001 7.44369 6.6001C7.9946 6.6001 25.2261 6.6001 25.777 6.6001Z" fill="white"/>
</svg>
